<svg xmlns="http://www.w3.org/2000/svg" viewBox="0 0 512 512">
  <defs>
    <linearGradient id="grad" x1="0%" y1="0%" x2="100%" y2="100%">
      <stop offset="0%" style="stop-color:#f09433;stop-opacity:1" />
      <stop offset="25%" style="stop-color:#e6683c;stop-opacity:1" />
      <stop offset="50%" style="stop-color:#dc2743;stop-opacity:1" />
      <stop offset="75%" style="stop-color:#cc2366;stop-opacity:1" />
      <stop offset="100%" style="stop-color:#bc1888;stop-opacity:1" />
    </linearGradient>
  </defs>
  <rect width="512" height="512" rx="128" fill="url(#grad)" />
  <path d="M256 128c-70.7 0-128 57.3-128 128s57.3 128 128 128 128-57.3 128-128-57.3-128-128-128zm0 216c-48.5 0-88-39.5-88-88s39.5-88 88-88 88 39.5 88 88-39.5 88-88 88zm124-216c-15.5 0-28 12.5-28 28s12.5 28 28 28 28-12.5 28-28-12.5-28-28-28z" fill="white"/>
</svg>
